<mxfile host="app.diagrams.net" modified="2023-02-16T09:12:43.159Z" agent="5.0 (Windows NT 10.0; Win64; x64) AppleWebKit/537.36 (KHTML, like Gecko) Chrome/110.0.0.0 Safari/537.36" etag="xNE1sNNxVVI6HK49lt-f" version="20.8.20" type="github">
  <diagram id="C5RBs43oDa-KdzZeNtuy" name="Page-1">
    <mxGraphModel dx="1434" dy="800" grid="1" gridSize="10" guides="1" tooltips="1" connect="1" arrows="1" fold="1" page="1" pageScale="1" pageWidth="827" pageHeight="1169" background="#FFFFFF" math="0" shadow="0">
      <root>
        <mxCell id="WIyWlLk6GJQsqaUBKTNV-0" />
        <mxCell id="WIyWlLk6GJQsqaUBKTNV-1" parent="WIyWlLk6GJQsqaUBKTNV-0" />
        <mxCell id="muE7NP1ZYRdCTuJR_rfA-10" style="edgeStyle=orthogonalEdgeStyle;rounded=0;orthogonalLoop=1;jettySize=auto;html=1;entryX=0.5;entryY=0;entryDx=0;entryDy=0;" edge="1" parent="WIyWlLk6GJQsqaUBKTNV-1" source="muE7NP1ZYRdCTuJR_rfA-0" target="muE7NP1ZYRdCTuJR_rfA-1">
          <mxGeometry relative="1" as="geometry" />
        </mxCell>
        <mxCell id="muE7NP1ZYRdCTuJR_rfA-0" value="Start" style="ellipse;whiteSpace=wrap;html=1;" vertex="1" parent="WIyWlLk6GJQsqaUBKTNV-1">
          <mxGeometry x="360" y="80" width="120" height="80" as="geometry" />
        </mxCell>
        <mxCell id="muE7NP1ZYRdCTuJR_rfA-9" style="edgeStyle=orthogonalEdgeStyle;rounded=0;orthogonalLoop=1;jettySize=auto;html=1;" edge="1" parent="WIyWlLk6GJQsqaUBKTNV-1" source="muE7NP1ZYRdCTuJR_rfA-1" target="muE7NP1ZYRdCTuJR_rfA-3">
          <mxGeometry relative="1" as="geometry" />
        </mxCell>
        <mxCell id="muE7NP1ZYRdCTuJR_rfA-1" value="pobierz wartość a" style="rounded=0;whiteSpace=wrap;html=1;" vertex="1" parent="WIyWlLk6GJQsqaUBKTNV-1">
          <mxGeometry x="360" y="200" width="120" height="60" as="geometry" />
        </mxCell>
        <mxCell id="muE7NP1ZYRdCTuJR_rfA-7" style="edgeStyle=orthogonalEdgeStyle;rounded=0;orthogonalLoop=1;jettySize=auto;html=1;entryX=0.5;entryY=0;entryDx=0;entryDy=0;" edge="1" parent="WIyWlLk6GJQsqaUBKTNV-1" source="muE7NP1ZYRdCTuJR_rfA-3" target="muE7NP1ZYRdCTuJR_rfA-4">
          <mxGeometry relative="1" as="geometry" />
        </mxCell>
        <mxCell id="muE7NP1ZYRdCTuJR_rfA-8" style="edgeStyle=orthogonalEdgeStyle;rounded=0;orthogonalLoop=1;jettySize=auto;html=1;exitX=1;exitY=0.5;exitDx=0;exitDy=0;entryX=0.5;entryY=0;entryDx=0;entryDy=0;" edge="1" parent="WIyWlLk6GJQsqaUBKTNV-1" source="muE7NP1ZYRdCTuJR_rfA-3" target="muE7NP1ZYRdCTuJR_rfA-5">
          <mxGeometry relative="1" as="geometry" />
        </mxCell>
        <mxCell id="muE7NP1ZYRdCTuJR_rfA-3" value="a &amp;lt; 0" style="rhombus;whiteSpace=wrap;html=1;" vertex="1" parent="WIyWlLk6GJQsqaUBKTNV-1">
          <mxGeometry x="365" y="300" width="110" height="110" as="geometry" />
        </mxCell>
        <mxCell id="muE7NP1ZYRdCTuJR_rfA-19" style="edgeStyle=orthogonalEdgeStyle;rounded=0;orthogonalLoop=1;jettySize=auto;html=1;entryX=0;entryY=0.5;entryDx=0;entryDy=0;fontSize=18;" edge="1" parent="WIyWlLk6GJQsqaUBKTNV-1" source="muE7NP1ZYRdCTuJR_rfA-4" target="muE7NP1ZYRdCTuJR_rfA-5">
          <mxGeometry relative="1" as="geometry" />
        </mxCell>
        <mxCell id="muE7NP1ZYRdCTuJR_rfA-4" value="wyświetl a * (-1)" style="rounded=0;whiteSpace=wrap;html=1;" vertex="1" parent="WIyWlLk6GJQsqaUBKTNV-1">
          <mxGeometry x="360" y="460" width="120" height="60" as="geometry" />
        </mxCell>
        <mxCell id="muE7NP1ZYRdCTuJR_rfA-5" value="wyświetl a" style="rounded=0;whiteSpace=wrap;html=1;" vertex="1" parent="WIyWlLk6GJQsqaUBKTNV-1">
          <mxGeometry x="510" y="460" width="120" height="60" as="geometry" />
        </mxCell>
        <mxCell id="muE7NP1ZYRdCTuJR_rfA-6" value="Koniec" style="ellipse;whiteSpace=wrap;html=1;" vertex="1" parent="WIyWlLk6GJQsqaUBKTNV-1">
          <mxGeometry x="510" y="580" width="120" height="80" as="geometry" />
        </mxCell>
        <mxCell id="muE7NP1ZYRdCTuJR_rfA-15" value="" style="endArrow=classic;html=1;rounded=0;entryX=0.5;entryY=0;entryDx=0;entryDy=0;exitX=0.5;exitY=1;exitDx=0;exitDy=0;" edge="1" parent="WIyWlLk6GJQsqaUBKTNV-1" source="muE7NP1ZYRdCTuJR_rfA-5" target="muE7NP1ZYRdCTuJR_rfA-6">
          <mxGeometry width="50" height="50" relative="1" as="geometry">
            <mxPoint x="420" y="440" as="sourcePoint" />
            <mxPoint x="440" y="390" as="targetPoint" />
          </mxGeometry>
        </mxCell>
        <mxCell id="muE7NP1ZYRdCTuJR_rfA-16" value="Tak" style="text;html=1;strokeColor=none;fillColor=none;align=center;verticalAlign=middle;whiteSpace=wrap;rounded=0;fontSize=18;" vertex="1" parent="WIyWlLk6GJQsqaUBKTNV-1">
          <mxGeometry x="365" y="410" width="60" height="30" as="geometry" />
        </mxCell>
        <mxCell id="muE7NP1ZYRdCTuJR_rfA-17" value="Nie" style="text;html=1;strokeColor=none;fillColor=none;align=center;verticalAlign=middle;whiteSpace=wrap;rounded=0;fontSize=18;" vertex="1" parent="WIyWlLk6GJQsqaUBKTNV-1">
          <mxGeometry x="469" y="330" width="60" height="30" as="geometry" />
        </mxCell>
      </root>
    </mxGraphModel>
  </diagram>
</mxfile>
